<?xml version="1.0" standalone="no"?>
<!DOCTYPE svg PUBLIC "-//W3C//DTD SVG 20010904//EN"
 "http://www.w3.org/TR/2001/REC-SVG-20010904/DTD/svg10.dtd">
<svg version="1.0" xmlns="http://www.w3.org/2000/svg"
 width="700.000000pt" height="700.000000pt" viewBox="0 0 700.000000 700.000000"
 preserveAspectRatio="xMidYMid meet">
<metadata>
Created by potrace 1.11, written by Peter Selinger 2001-2013
</metadata>
<g transform="translate(0.000000,700.000000) scale(0.100000,-0.100000)"
fill="#000000" stroke="none">
<path d="M3428 6584 c-3 -2 -40 -6 -168 -19 -30 -3 -66 -8 -80 -10 -14 -2 -59
-7 -100 -10 -41 -4 -82 -8 -90 -10 -9 -2 -45 -6 -80 -9 -36 -4 -78 -8 -95 -11
-16 -2 -61 -6 -100 -10 -38 -4 -78 -9 -87 -10 -9 -2 -49 -7 -90 -10 -40 -4
-75 -9 -78 -11 -2 -3 81 -90 185 -194 l190 -190 -480 -480 c-264 -264 -483
-480 -486 -480 -3 0 -69 62 -146 139 -127 125 -175 160 -210 155 -7 -1 -21 -2
-30 -3 -21 -1 -1448 -1423 -1469 -1463 -43 -82 30 -180 122 -164 35 7 105 73
711 679 l672 671 147 -147 c80 -81 151 -147 158 -148 6 0 20 -2 31 -4 11 -2
31 -1 45 2 16 3 229 209 563 542 l537 536 190 -190 c104 -104 191 -187 194
-185 2 3 7 40 10 82 4 42 9 85 10 95 2 10 7 52 11 93 3 41 8 82 10 90 2 8 7
48 10 88 4 41 8 81 10 90 1 9 6 51 10 92 4 41 9 83 10 92 2 9 6 48 10 85 3 37
8 79 10 93 2 14 6 51 10 82 l6 57 -35 -1 c-20 -1 -37 -2 -38 -4z"/>
<path d="M4900 3558 l0 -2566 700 -1 700 0 -2 2567 -3 2567 -697 0 -698 0 0
-2567z"/>
<path d="M6839 6112 c-18 -9 -42 -29 -53 -44 -19 -27 -19 -45 -20 -2726 l0
-2699 -3335 0 c-3141 0 -3338 -1 -3369 -17 -81 -42 -75 -176 10 -205 22 -8
1033 -11 3435 -11 2960 0 3408 2 3432 15 16 8 36 30 45 49 15 31 16 260 16
2798 0 2718 0 2764 -20 2795 -32 54 -88 72 -141 45z"/>
<path d="M2801 2974 l0 -1983 699 0 700 0 0 1984 0 1983 -700 0 -699 0 0
-1984z"/>
<path d="M701 2275 l-1 -1284 700 0 700 0 0 1284 0 1283 -700 0 -699 0 0
-1283z"/>
</g>
</svg>
